<?xml version="1.0" encoding="utf-8"?>
<!-- Generator: Adobe Illustrator 24.2.3, SVG Export Plug-In . SVG Version: 6.00 Build 0)  -->
<svg version="1.1" id="Layer_2" xmlns="http://www.w3.org/2000/svg" xmlns:xlink="http://www.w3.org/1999/xlink" x="0px" y="0px"
	 viewBox="0 0 1503.36 1236.91" style="enable-background:new 0 0 1503.36 1236.91;" xml:space="preserve">
<style type="text/css">
	.st0{fill:#FFB2A2;}
	.st1{fill:#333333;}
	.st2{fill:#FFDD4D;}
	.st3{fill:#007AFF;}
	.st4{fill:#FFFFFF;}
	.st5{fill:#55BEF0;}
	.st6{fill:#F7A294;}
</style>
<g>
	<g>
		<g>
			<polygon class="st0" points="667.05,543.3 673.12,613.23 643.15,622.51 663.84,720.17 850.09,701.01 871.5,607.53 834.54,602.81 
				814.77,421.28 			"/>
		</g>
		<g>
			<polygon class="st1" points="746.51,516.17 670.02,577.53 667.05,543.3 			"/>
		</g>
		<g>
			<path class="st0" d="M594.26,313.17c0,0-38.53,234.42,72.79,230.14c111.32-4.28,147.71-122.03,147.71-122.03l-10.7-133.8
				C804.06,287.48,608.18,230.75,594.26,313.17z"/>
		</g>
		<g>
			<path class="st2" d="M778.73,421.28c-32.22,11.24,6.6-85.63-19.09-92.59c-25.69-6.96-35.32,22.48-70.11,17.66
				c-34.79-4.82-24.08-26.22-42.82-27.3c-18.73-1.07-59.41,12.84-89.91-21.94c-30.51-34.79-4.33-95.8,31.01-101.69
				c35.35-5.89,66.93,37.46,99.57,41.21c32.65,3.75,50.84-14.99,101.69,0c50.84,14.99,49.77,55.13,60.48,66.9
				c10.7,11.77,28.9,13.38,28.37,35.86s-12.31,29.44-14.45,44.42c-2.14,14.99,3.99,72.64-43.23,87.7l-5.47-50.24H778.73z"/>
		</g>
		<g>
			<path class="st1" d="M601.22,364.37c-1.03,0-1.99-0.64-2.36-1.66c-0.46-1.3,0.22-2.73,1.52-3.19l22.57-8.03
				c1.3-0.46,2.73,0.22,3.19,1.52c0.46,1.3-0.22,2.73-1.52,3.19l-22.57,8.03C601.78,364.32,601.5,364.37,601.22,364.37z"/>
		</g>
		<g>
			<path class="st1" d="M714.15,360.36c-0.22,0-0.44-0.03-0.66-0.09l-22.48-6.15c-1.33-0.36-2.12-1.74-1.75-3.07
				c0.37-1.33,1.74-2.11,3.07-1.75l22.48,6.15c1.33,0.36,2.12,1.74,1.75,3.07C716.26,359.63,715.25,360.36,714.15,360.36z"/>
		</g>
		<g>
			<path class="st1" d="M649.92,443.32c-4.42,0-8.54-1.65-11.47-4.64c-2.39-2.44-3.62-5.39-3.37-8.11
				c0.47-5.13,6.52-10.49,14.75-10.31c0.83,0.02,1.48,0.71,1.46,1.53c-0.02,0.83-0.7,1.51-1.53,1.46
				c-6.47-0.13-11.36,3.88-11.7,7.58c-0.16,1.81,0.78,3.96,2.53,5.74c2.59,2.64,6.38,3.99,10.4,3.7c0.83-0.05,1.54,0.56,1.6,1.39
				c0.06,0.83-0.56,1.54-1.39,1.6C650.77,443.3,650.34,443.32,649.92,443.32z"/>
		</g>
		<g>
			<path class="st1" d="M660.33,483.13c-0.71,0-1.36-0.02-1.93-0.06c-0.83-0.05-1.45-0.77-1.4-1.59c0.05-0.83,0.75-1.46,1.59-1.4
				c3.72,0.24,11-0.1,17.94-5.07c5.5-3.94,8.28-8.99,9.64-12.52c0.3-0.77,1.16-1.16,1.94-0.86c0.77,0.3,1.16,1.17,0.86,1.94
				c-1.51,3.92-4.59,9.51-10.69,13.88C671.64,482.19,664.75,483.13,660.33,483.13z"/>
		</g>
		<g>
			<ellipse class="st1" cx="625.04" cy="388.9" rx="6.15" ry="10.44"/>
		</g>
		<g>
			<path class="st1" d="M701.29,386.22c0,5.76-2.76,10.44-6.15,10.44c-3.4,0-6.15-4.67-6.15-10.44s2.76-10.44,6.15-10.44
				C698.54,375.79,701.29,380.46,701.29,386.22z"/>
		</g>
		<g>
			<polygon class="st2" points="801.48,451.46 820.24,471.51 817,441.82 			"/>
		</g>
		<g>
			
				<ellipse transform="matrix(0.2298 -0.9732 0.9732 0.2298 213.9913 1112.9435)" class="st0" cx="810.13" cy="421.28" rx="31.4" ry="31.4"/>
		</g>
		<g>
			<path class="st1" d="M797.64,431.98c-0.8,0-1.59-0.39-2.08-1.11c-0.77-1.15-0.46-2.7,0.68-3.47l24.98-16.77
				c1.15-0.77,2.7-0.46,3.47,0.68s0.46,2.7-0.68,3.47l-24.98,16.77C798.61,431.85,798.12,431.98,797.64,431.98z"/>
		</g>
	</g>
	<g>
		<g>
			<path class="st3" d="M1111.26,938.27L1005.3,894.4l37.46,342.52H558.95l-26.58-292l-22.66,22.26L349.15,848.36
				c0,0,127.37-155.2,164.83-183.04c24.74-18.38,79.83-33.22,114.39-41.19h0.01c17.77-4.1,30.11-6.38,30.11-6.38
				s32.78,60.52,104.9,51.85c68.15-8.21,98.35-63.33,98.35-63.33s17.36,1.88,40.88,5.21l0.01,0.01
				c33.14,4.71,78.51,12.32,104.8,21.71c44.96,16.05,202.3,126.3,202.3,126.3L1111.26,938.27z"/>
		</g>
		<g>
			<path class="st4" d="M520.41,947.42c-0.53,0-1.06-0.17-1.52-0.52L365.21,829.14c-1.1-0.84-1.3-2.41-0.46-3.5
				c0.84-1.1,2.41-1.3,3.5-0.46l153.68,117.76c1.1,0.84,1.3,2.41,0.46,3.5C521.9,947.08,521.16,947.42,520.41,947.42z"/>
		</g>
		<g>
			<path class="st4" d="M1086.43,930.49c-0.32,0-0.64-0.06-0.96-0.19c-0.65-0.27-1.16-0.8-1.4-1.46c-0.42-1.16-0.42-1.16,4.23-10.22
				c2.64-5.15,6.43-12.47,10.99-21.24c8.06-15.5,19.31-37.06,33.45-64.07c24.07-46,48.48-92.5,48.73-92.96
				c0.64-1.22,2.15-1.69,3.38-1.05c1.22,0.64,1.69,2.15,1.05,3.38c-32.64,62.16-94.6,180.41-97.07,186.04
				c-0.02,0.08-0.05,0.16-0.08,0.23C1088.34,929.91,1087.41,930.49,1086.43,930.49z M1087.39,925.69c1.15,0.48,1.75,1.71,1.47,2.89
				C1089.14,927.54,1088.65,926.21,1087.39,925.69z"/>
		</g>
		<g>
			<path class="st5" d="M902.64,611.5c0,0-52.54,89.51-136.04,92.36c-99.58,3.4-138.23-79.72-138.23-79.72h0.01
				c17.77-4.1,30.11-6.38,30.11-6.38s32.78,60.52,104.9,51.85c68.15-8.21,98.35-63.33,98.35-63.33s17.36,1.88,40.88,5.21
				L902.64,611.5z"/>
		</g>
		<g>
			<polygon class="st5" points="963.55,876.2 527.51,886.04 539.92,1036.43 1019.52,1024.46 1005.3,894.39 			"/>
		</g>
		<g>
			<polygon class="st1" points="1005.3,894.39 963.55,876.2 1008.97,927.99 			"/>
		</g>
		<g>
			<polygon class="st1" points="532.37,944.92 527.51,886.04 509.7,967.18 			"/>
		</g>
	</g>
	<g>
		<g>
			<path class="st0" d="M502.31,961.7l-49.83,59.06c-13.44,15.93-29.04,28.21-45.84,37.01c-77.64,40.7-180.85,7.26-213.7-83.23
				c-55.92-154.02-117.9-324.83-121.38-334.9c-5.47-15.79-45.02-98.19-56.7-122.44c-0.55-1.15-0.82-2.37-0.82-3.58
				c0-2.79,1.42-5.5,3.95-7.04c3.66-2.23,8.42-1.3,10.95,2.16l45.47,61.98l-32.82-94.13c-0.37-1.05-0.54-2.13-0.54-3.2
				c0-3.65,2.07-7.11,5.53-8.77c4.76-2.28,10.47-0.34,12.86,4.37l44.94,88.58l-23.13-98.94c-0.21-0.89-0.31-1.79-0.31-2.67
				c0-5.14,3.43-9.83,8.6-11.25c5.94-1.63,12.12,1.64,14.13,7.46L142.2,564l14.66-37.8c1.17-3.02,3.22-5.53,5.78-7.28
				c2.55-1.75,5.63-2.75,8.87-2.75c9.87,0,17.31,9.01,15.42,18.7c-4.17,21.47-10.23,55.74-9.76,71.41
				c0.71,23.73,154.13,279.76,154.13,279.76l29.27-29.23L502.31,961.7z"/>
		</g>
		<g>
			<path class="st1" d="M66.56,582.2c-0.64,0-1.28-0.24-1.77-0.73c-0.98-0.98-0.98-2.56,0-3.54c6.59-6.59,14.23-11.81,22.71-15.51
				c10.35-4.52,21.84-6.62,33.23-6.09c1.38,0.06,2.44,1.23,2.38,2.61c-0.06,1.38-1.22,2.45-2.61,2.38
				c-10.63-0.5-21.34,1.47-30.99,5.68c-7.9,3.45-15.03,8.32-21.18,14.46C67.84,581.95,67.2,582.2,66.56,582.2z"/>
		</g>
		<g>
			<polygon class="st1" points="360.57,856.81 482.22,985.5 502.31,961.7 			"/>
		</g>
		<g>
			<path class="st6" d="M406.64,1057.77c-77.64,40.7-180.85,7.26-213.7-83.23C192.94,974.54,361.71,978.09,406.64,1057.77z"/>
		</g>
	</g>
	<g>
		<g>
			<path class="st0" d="M1293.05,1082.9l-24.44,8.4l-242.98,83.54c-12.84,35.32-99.54,56.73-122.99,52.45
				c-23.45-4.29-50.41-78.14-41.85-97.41c8.57-19.27,314.7-171.26,314.7-171.26l-58.56-30.63l88.65-160.91l119.25,81.77
				c11.64,7.98,21.45,17.23,29.48,27.38c0.01,0.01,0.01,0.01,0.01,0.01C1408.17,944.23,1382.44,1052.16,1293.05,1082.9z"/>
		</g>
		<g>
			<polygon class="st1" points="1205.58,767.08 1139.88,939.99 1116.93,927.99 			"/>
		</g>
		<g>
			<path class="st6" d="M1293.05,1082.9l-24.44,8.4c-28.7-100.92,85.67-215.1,85.67-215.1s0.01,0.01,0.03,0.03
				c0.01,0.01,0.01,0.01,0.01,0.01C1408.17,944.23,1382.44,1052.16,1293.05,1082.9z"/>
		</g>
	</g>
	<g>
		<g>
			<path class="st5" d="M1494.05,236.16c0,130.43-105.73,236.16-236.16,236.16c-33.52,0-65.4-6.98-94.28-19.57
				c-53.82,33.43-154.64-6.14-154.64-6.14c34.1-7.09,60.4-25.92,79.61-45.8c-41.39-42.54-66.87-100.62-66.87-164.65
				C1021.71,105.73,1127.45,0,1257.89,0S1494.05,105.73,1494.05,236.16z"/>
		</g>
		<g>
			<g>
				<path class="st4" d="M1305.71,169.91l-32.34,156.61c-1.42,6.87-8.14,11.3-15.02,9.88l-1.04-0.21
					c-6.87-1.42-11.3-8.14-9.88-15.02l11.57-56.01c1.42-6.87-3-13.6-9.88-15.02l-79.34-16.38c-6.87-1.42-13.6,3-15.02,9.88
					l-11.57,56.01c-1.42,6.87-8.14,11.3-15.02,9.88l-1.04-0.21c-6.87-1.42-11.3-8.14-9.88-15.02l32.34-156.61
					c1.42-6.87,8.14-11.3,15.02-9.88l1.04,0.21c6.87,1.42,11.3,8.14,9.88,15.02l-10.98,53.15c-1.42,6.87,3,13.6,9.88,15.02
					l79.34,16.38c6.87,1.42,13.6-3,15.02-9.88l10.98-53.15c1.42-6.87,8.14-11.3,15.02-9.88l1.04,0.21
					C1302.7,156.32,1307.13,163.04,1305.71,169.91z"/>
			</g>
			<g>
				<path class="st4" d="M1356.81,181c-2.56-3.77-3.37-7.9-2.44-12.4c0.93-4.49,3.32-8.01,7.18-10.55
					c3.86-2.54,8.21-3.31,13.05-2.31c4.84,1,8.54,3.34,11.12,7.03c2.57,3.69,3.4,7.78,2.47,12.27c-0.96,4.67-3.38,8.27-7.23,10.81
					c-3.86,2.54-8.21,3.31-13.05,2.31C1363.06,187.16,1359.36,184.78,1356.81,181z M1362.44,214.61L1362.44,214.61
					c6.87,1.42,11.3,8.14,9.88,15.02l-23.24,112.53c-1.42,6.87-8.14,11.3-15.02,9.88l0,0c-6.87-1.42-11.3-8.14-9.88-15.02
					l23.24-112.53C1348.84,217.61,1355.57,213.19,1362.44,214.61z"/>
			</g>
		</g>
	</g>
</g>
</svg>
